<svg xmlns="http://www.w3.org/2000/svg" viewBox="0 0 1100 820" font-family="'Virgil', 'Segoe Print', 'Comic Sans MS', 'Caveat', cursive, sans-serif">
  <defs>
    <filter id="rough" x="-2%" y="-2%" width="104%" height="104%">
      <feTurbulence type="turbulence" baseFrequency="0.03" numOctaves="4" result="noise"/>
      <feDisplacementMap in="SourceGraphic" in2="noise" scale="1.2" xChannelSelector="R" yChannelSelector="G"/>
    </filter>
    <filter id="shadow">
      <feDropShadow dx="2" dy="2" stdDeviation="3" flood-color="#00000018"/>
    </filter>
    <marker id="arrow" markerWidth="10" markerHeight="7" refX="10" refY="3.5" orient="auto">
      <polygon points="0 0, 10 3.5, 0 7" fill="#555"/>
    </marker>
    <marker id="arrow-green" markerWidth="10" markerHeight="7" refX="10" refY="3.5" orient="auto">
      <polygon points="0 0, 10 3.5, 0 7" fill="#2b8a3e"/>
    </marker>
    <marker id="arrow-blue" markerWidth="10" markerHeight="7" refX="10" refY="3.5" orient="auto">
      <polygon points="0 0, 10 3.5, 0 7" fill="#1971c2"/>
    </marker>
  </defs>

  <!-- Background -->
  <rect width="1100" height="820" fill="#fefefe" rx="12"/>

  <!-- Title -->
  <text x="550" y="38" text-anchor="middle" font-size="22" font-weight="bold" fill="#1a1a2e" letter-spacing="0.5">Vaultera  System Architecture</text>

  <!-- PPP FRONTEND LAYER PPP -->
  <rect x="40" y="58" width="1020" height="180" rx="16" fill="#e7f5ff" stroke="#74c0fc" stroke-width="2" filter="url(#shadow)" stroke-dasharray="8 4"/>
  <text x="60" y="84" font-size="13" font-weight="bold" fill="#1971c2" letter-spacing="1">FRONTEND</text>
  <text x="168" y="84" font-size="11" fill="#5c7cfa">React 18 · TypeScript · Tailwind</text>

  <!-- Frontend modules -->
  <rect x="60" y="98" width="140" height="52" rx="10" fill="#d0ebff" stroke="#74c0fc" stroke-width="1.5"/>
  <text x="130" y="121" text-anchor="middle" font-size="13" font-weight="bold" fill="#1864ab">Vault Dashboard</text>
  <text x="130" y="138" text-anchor="middle" font-size="10" fill="#4a6fa5">TVL · Deposit · Withdraw</text>

  <rect x="220" y="98" width="140" height="52" rx="10" fill="#d0ebff" stroke="#74c0fc" stroke-width="1.5"/>
  <text x="290" y="121" text-anchor="middle" font-size="13" font-weight="bold" fill="#1864ab">Agent Monitor</text>
  <text x="290" y="138" text-anchor="middle" font-size="10" fill="#4a6fa5">Decisions · Reasoning</text>

  <rect x="380" y="98" width="140" height="52" rx="10" fill="#d0ebff" stroke="#74c0fc" stroke-width="1.5"/>
  <text x="450" y="121" text-anchor="middle" font-size="13" font-weight="bold" fill="#1864ab">Arena</text>
  <text x="450" y="138" text-anchor="middle" font-size="10" fill="#4a6fa5">Rounds · Staking</text>

  <rect x="540" y="98" width="155" height="52" rx="10" fill="#d0ebff" stroke="#74c0fc" stroke-width="1.5"/>
  <text x="617" y="121" text-anchor="middle" font-size="13" font-weight="bold" fill="#1864ab">Live Performance</text>
  <text x="617" y="138" text-anchor="middle" font-size="10" fill="#4a6fa5">Sparklines · Ticking</text>

  <rect x="715" y="98" width="140" height="52" rx="10" fill="#d0ebff" stroke="#74c0fc" stroke-width="1.5"/>
  <text x="785" y="121" text-anchor="middle" font-size="13" font-weight="bold" fill="#1864ab">Activity Feed</text>
  <text x="785" y="138" text-anchor="middle" font-size="10" fill="#4a6fa5">On-chain Events</text>

  <rect x="875" y="98" width="165" height="52" rx="10" fill="#d0ebff" stroke="#74c0fc" stroke-width="1.5"/>
  <text x="957" y="121" text-anchor="middle" font-size="13" font-weight="bold" fill="#1864ab">Portfolio</text>
  <text x="957" y="138" text-anchor="middle" font-size="10" fill="#4a6fa5">Positions · Returns</text>

  <!-- Data layer inside frontend -->
  <rect x="60" y="168" width="440" height="52" rx="10" fill="#a5d8ff" stroke="#339af0" stroke-width="1.5"/>
  <text x="280" y="191" text-anchor="middle" font-size="13" font-weight="bold" fill="#1864ab">ethers.js v6</text>
  <text x="280" y="208" text-anchor="middle" font-size="10" fill="#1864ab">JSON-RPC · Contract reads · Wallet txs</text>

  <rect x="520" y="168" width="520" height="52" rx="10" fill="#a5d8ff" stroke="#339af0" stroke-width="1.5"/>
  <text x="780" y="191" text-anchor="middle" font-size="13" font-weight="bold" fill="#1864ab">Hedera Mirror Node REST</text>
  <text x="780" y="208" text-anchor="middle" font-size="10" fill="#1864ab">Event logs · Transactions · HCS messages</text>

  <!-- Arrows: Frontend ’ Hedera -->
  <line x1="280" y1="220" x2="280" y2="290" stroke="#1971c2" stroke-width="2" marker-end="url(#arrow-blue)" stroke-dasharray="6 3"/>
  <line x1="780" y1="220" x2="780" y2="290" stroke="#1971c2" stroke-width="2" marker-end="url(#arrow-blue)" stroke-dasharray="6 3"/>

  <!-- PPP HEDERA LAYER PPP -->
  <rect x="40" y="290" width="1020" height="290" rx="16" fill="#ebfbee" stroke="#69db7c" stroke-width="2" filter="url(#shadow)" stroke-dasharray="8 4"/>
  <text x="60" y="316" font-size="13" font-weight="bold" fill="#2b8a3e" letter-spacing="1">HEDERA NETWORK</text>
  <text x="218" y="316" font-size="11" fill="#40c057">EVM · HCS · Mirror Node</text>

  <!-- Smart contracts group -->
  <rect x="60" y="332" width="480" height="230" rx="12" fill="#d3f9d8" stroke="#69db7c" stroke-width="1.5"/>
  <text x="80" y="356" font-size="12" font-weight="bold" fill="#2b8a3e">Smart Contracts (Solidity 0.8.20)</text>

  <!-- Vault boxes -->
  <rect x="80" y="368" width="200" height="72" rx="8" fill="#fff" stroke="#51cf66" stroke-width="1.5"/>
  <text x="180" y="390" text-anchor="middle" font-size="13" font-weight="bold" fill="#2b8a3e">Vault ×3</text>
  <text x="180" y="407" text-anchor="middle" font-size="10" fill="#555">deposit() · withdraw()</text>
  <text x="180" y="422" text-anchor="middle" font-size="10" fill="#555">allocate() · executeAction()</text>
  <text x="180" y="435" text-anchor="middle" font-size="9" fill="#868e96">ERC20 share tokens</text>

  <!-- Strategy boxes -->
  <rect x="310" y="368" width="210" height="72" rx="8" fill="#fff" stroke="#51cf66" stroke-width="1.5"/>
  <text x="415" y="390" text-anchor="middle" font-size="13" font-weight="bold" fill="#2b8a3e">Strategy ×3</text>
  <text x="415" y="407" text-anchor="middle" font-size="10" fill="#555">StableLending</text>
  <text x="415" y="422" text-anchor="middle" font-size="10" fill="#555">MomentumPool · YieldFarm</text>
  <text x="415" y="435" text-anchor="middle" font-size="9" fill="#868e96">USDC yield bookkeeping</text>

  <!-- Arrow: Vault ’ Strategy -->
  <line x1="280" y1="404" x2="308" y2="404" stroke="#2b8a3e" stroke-width="1.8" marker-end="url(#arrow-green)"/>

  <!-- Arena -->
  <rect x="80" y="458" width="200" height="55" rx="8" fill="#fff" stroke="#51cf66" stroke-width="1.5"/>
  <text x="180" y="480" text-anchor="middle" font-size="13" font-weight="bold" fill="#2b8a3e">Arena</text>
  <text x="180" y="498" text-anchor="middle" font-size="10" fill="#555">Vault-vs-vault staking · 90/10 split</text>

  <!-- Token contracts -->
  <rect x="310" y="458" width="100" height="55" rx="8" fill="#fff" stroke="#51cf66" stroke-width="1.5"/>
  <text x="360" y="480" text-anchor="middle" font-size="12" font-weight="bold" fill="#2b8a3e">USDC</text>
  <text x="360" y="496" text-anchor="middle" font-size="10" fill="#555">Test token</text>

  <rect x="420" y="458" width="100" height="55" rx="8" fill="#fff" stroke="#51cf66" stroke-width="1.5"/>
  <text x="470" y="480" text-anchor="middle" font-size="12" font-weight="bold" fill="#2b8a3e">vaUSD</text>
  <text x="470" y="496" text-anchor="middle" font-size="10" fill="#555">Wrapped stable</text>

  <!-- HCS -->
  <rect x="570" y="332" width="470" height="230" rx="12" fill="#d3f9d8" stroke="#69db7c" stroke-width="1.5"/>
  <text x="590" y="356" font-size="12" font-weight="bold" fill="#2b8a3e">Hedera Consensus Service (HCS)</text>

  <rect x="590" y="372" width="200" height="50" rx="8" fill="#fff" stroke="#51cf66" stroke-width="1.5"/>
  <text x="690" y="393" text-anchor="middle" font-size="12" font-weight="bold" fill="#2b8a3e">Topic: Atlas</text>
  <text x="690" y="410" text-anchor="middle" font-size="10" fill="#555">Immutable decision log</text>

  <rect x="590" y="432" width="200" height="50" rx="8" fill="#fff" stroke="#51cf66" stroke-width="1.5"/>
  <text x="690" y="453" text-anchor="middle" font-size="12" font-weight="bold" fill="#2b8a3e">Topic: Meridian</text>
  <text x="690" y="470" text-anchor="middle" font-size="10" fill="#555">Immutable decision log</text>

  <rect x="590" y="492" width="200" height="50" rx="8" fill="#fff" stroke="#51cf66" stroke-width="1.5"/>
  <text x="690" y="513" text-anchor="middle" font-size="12" font-weight="bold" fill="#2b8a3e">Topic: Echo</text>
  <text x="690" y="530" text-anchor="middle" font-size="10" fill="#555">Immutable decision log</text>

  <!-- HCS description -->
  <text x="830" y="395" font-size="11" fill="#555" font-style="italic">Every agent decision</text>
  <text x="830" y="412" font-size="11" fill="#555" font-style="italic">is published as an</text>
  <text x="830" y="429" font-size="11" fill="#555" font-style="italic">immutable, timestamped</text>
  <text x="830" y="446" font-size="11" fill="#555" font-style="italic">HCS message  publicly</text>
  <text x="830" y="463" font-size="11" fill="#555" font-style="italic">auditable forever.</text>

  <!-- PPP AGENT LAYER PPP -->
  <rect x="40" y="620" width="1020" height="180" rx="16" fill="#fff3bf" stroke="#fcc419" stroke-width="2" filter="url(#shadow)" stroke-dasharray="8 4"/>
  <text x="60" y="646" font-size="13" font-weight="bold" fill="#e67700" letter-spacing="1">AI AGENT RUNTIME</text>
  <text x="228" y="646" font-size="11" fill="#f08c00">Autonomous · Off-chain · Continuous</text>

  <!-- Agent personas -->
  <rect x="60" y="662" width="140" height="120" rx="10" fill="#fff9db" stroke="#fcc419" stroke-width="1.5"/>
  <text x="130" y="686" text-anchor="middle" font-size="13" font-weight="bold" fill="#e67700">Atlas</text>
  <text x="130" y="703" text-anchor="middle" font-size="10" fill="#555">Conservative Macro</text>
  <text x="130" y="718" text-anchor="middle" font-size="10" fill="#555">Low risk</text>
  <rect x="85" y="728" width="90" height="16" rx="4" fill="#2b8a3e22" stroke="#2b8a3e" stroke-width="0.8"/>
  <text x="130" y="740" text-anchor="middle" font-size="9" fill="#2b8a3e">Treasury Core</text>
  <rect x="85" y="748" width="90" height="16" rx="4" fill="#1971c222" stroke="#1971c2" stroke-width="0.8"/>
  <text x="130" y="760" text-anchor="middle" font-size="9" fill="#1971c2">Trust: 97</text>

  <rect x="220" y="662" width="140" height="120" rx="10" fill="#fff9db" stroke="#fcc419" stroke-width="1.5"/>
  <text x="290" y="686" text-anchor="middle" font-size="13" font-weight="bold" fill="#e67700">Meridian</text>
  <text x="290" y="703" text-anchor="middle" font-size="10" fill="#555">Dynamic Momentum</text>
  <text x="290" y="718" text-anchor="middle" font-size="10" fill="#555">Moderate risk</text>
  <rect x="245" y="728" width="90" height="16" rx="4" fill="#2b8a3e22" stroke="#2b8a3e" stroke-width="0.8"/>
  <text x="290" y="740" text-anchor="middle" font-size="9" fill="#2b8a3e">Momentum Alpha</text>
  <rect x="245" y="748" width="90" height="16" rx="4" fill="#1971c222" stroke="#1971c2" stroke-width="0.8"/>
  <text x="290" y="760" text-anchor="middle" font-size="9" fill="#1971c2">Trust: 92</text>

  <rect x="380" y="662" width="140" height="120" rx="10" fill="#fff9db" stroke="#fcc419" stroke-width="1.5"/>
  <text x="450" y="686" text-anchor="middle" font-size="13" font-weight="bold" fill="#e67700">Echo</text>
  <text x="450" y="703" text-anchor="middle" font-size="10" fill="#555">Adaptive Yield</text>
  <text x="450" y="718" text-anchor="middle" font-size="10" fill="#555">Low risk</text>
  <rect x="405" y="728" width="90" height="16" rx="4" fill="#2b8a3e22" stroke="#2b8a3e" stroke-width="0.8"/>
  <text x="450" y="740" text-anchor="middle" font-size="9" fill="#2b8a3e">StableFlow</text>
  <rect x="405" y="748" width="90" height="16" rx="4" fill="#1971c222" stroke="#1971c2" stroke-width="0.8"/>
  <text x="450" y="760" text-anchor="middle" font-size="9" fill="#1971c2">Trust: 95</text>

  <!-- Decision engine -->
  <rect x="560" y="662" width="260" height="120" rx="10" fill="#fff9db" stroke="#fcc419" stroke-width="1.5"/>
  <text x="690" y="686" text-anchor="middle" font-size="13" font-weight="bold" fill="#e67700">Decision Engine</text>
  <text x="690" y="706" text-anchor="middle" font-size="10" fill="#555">1. Read on-chain vault state</text>
  <text x="690" y="721" text-anchor="middle" font-size="10" fill="#555">2. Query agentic LLM</text>
  <text x="690" y="736" text-anchor="middle" font-size="10" fill="#555">3. Parse structured response</text>
  <text x="690" y="751" text-anchor="middle" font-size="10" fill="#555">4. Execute + log on-chain</text>
  <text x="690" y="766" text-anchor="middle" font-size="10" fill="#555">5. Publish reasoning to HCS</text>

  <!-- LLM block -->
  <rect x="850" y="662" width="190" height="120" rx="10" fill="#fff9db" stroke="#fcc419" stroke-width="1.5"/>
  <text x="945" y="686" text-anchor="middle" font-size="13" font-weight="bold" fill="#e67700">LLM Backend</text>
  <text x="945" y="708" text-anchor="middle" font-size="10" fill="#555">High-performance agentic</text>
  <text x="945" y="723" text-anchor="middle" font-size="10" fill="#555">models via OpenAI-compat</text>
  <text x="945" y="738" text-anchor="middle" font-size="10" fill="#555">API. Structured JSON output</text>
  <text x="945" y="753" text-anchor="middle" font-size="10" fill="#555">with actions + reasoning.</text>
  <rect x="880" y="760" width="130" height="16" rx="4" fill="#e67700" stroke="none"/>
  <text x="945" y="772" text-anchor="middle" font-size="9" fill="#fff" font-weight="bold">Model-agnostic runtime</text>

  <!-- Arrow: Decision ’ LLM -->
  <line x1="820" y1="722" x2="848" y2="722" stroke="#e67700" stroke-width="1.8" marker-end="url(#arrow)"/>

  <!-- Arrows: Agent ’ Hedera -->
  <line x1="280" y1="662" x2="280" y2="582" stroke="#e67700" stroke-width="2" marker-end="url(#arrow)" stroke-dasharray="6 3"/>
  <text x="288" y="624" font-size="10" fill="#e67700" font-style="italic">execute txs</text>

  <line x1="690" y1="662" x2="690" y2="560" stroke="#e67700" stroke-width="2" marker-end="url(#arrow)" stroke-dasharray="6 3"/>
  <text x="698" y="616" font-size="10" fill="#e67700" font-style="italic">publish to HCS</text>

  <!-- User icon -->
  <rect x="460" y="252" width="80" height="30" rx="6" fill="#f1f3f5" stroke="#adb5bd" stroke-width="1.2"/>
  <text x="500" y="272" text-anchor="middle" font-size="11" font-weight="bold" fill="#555">Users</text>
  <line x1="500" y1="252" x2="500" y2="238" stroke="#adb5bd" stroke-width="1.5" marker-end="url(#arrow)"/>
  <text x="508" y="248" font-size="9" fill="#868e96">MetaMask</text>
</svg>
